HIERARCHY
ROOT Hips
{
	OFFSET 0.000000 0.000000 0.000000
	CHANNELS 6 Xposition Yposition Zposition Zrotation Yrotation Xrotation 
	JOINT Spine1
	{
		OFFSET -0.013727 5.003762 -0.053727
		CHANNELS 3 Zrotation Yrotation Xrotation
		JOINT Spine2
		{
			OFFSET -0.000000 7.125302 -0.029825
			CHANNELS 3 Zrotation Yrotation Xrotation
			JOINT Chest
			{
				OFFSET -0.000001 7.550064 -0.815971
				CHANNELS 3 Zrotation Yrotation Xrotation
				JOINT Neck1
				{
					OFFSET -0.181676 26.311296 -0.553348
					CHANNELS 3 Zrotation Yrotation Xrotation
					JOINT Neck2
					{
						OFFSET -0.000003 7.709400 2.302586
						CHANNELS 3 Zrotation Yrotation Xrotation
						JOINT Head
						{
							OFFSET -0.000005 6.128913 1.953709
							CHANNELS 3 Zrotation Yrotation Xrotation
							JOINT HeadEnd
							{
								OFFSET 0.003598 16.065401 -1.835379
								CHANNELS 3 Zrotation Yrotation Xrotation
								End Site
								{
									OFFSET 0.000000 0.000000 0.000000
								}
							}
							JOINT Jaw
							{
								OFFSET 0.002637 0.475592 3.094940
								CHANNELS 3 Zrotation Yrotation Xrotation
								End Site
								{
									OFFSET 0.000000 0.000000 0.000000
								}
							}
							JOINT LeftEye
							{
								OFFSET 3.206381 5.380207 7.586883
								CHANNELS 3 Zrotation Yrotation Xrotation
								End Site
								{
									OFFSET 0.000000 0.000000 0.000000
								}
							}
							JOINT RightEye
							{
								OFFSET -3.222440 5.361867 7.558233
								CHANNELS 3 Zrotation Yrotation Xrotation
								End Site
								{
									OFFSET 0.000000 0.000000 0.000000
								}
							}
						}
					}
				}
				JOINT LeftShoulder
				{
					OFFSET 1.621652 23.237164 5.113413
					CHANNELS 3 Zrotation Yrotation Xrotation
					JOINT LeftArm
					{
						OFFSET 14.919845 -0.000001 -5.502326
						CHANNELS 3 Zrotation Yrotation Xrotation
						JOINT LeftForeArm
						{
							OFFSET 28.739309 0.000002 -0.002588
							CHANNELS 3 Zrotation Yrotation Xrotation
							JOINT LeftHand
							{
								OFFSET 27.093979 -0.000003 0.002609
								CHANNELS 3 Zrotation Yrotation Xrotation
								JOINT LeftHandThumb1
								{
									OFFSET 2.276480 -1.392046 3.191413
									CHANNELS 3 Zrotation Yrotation Xrotation
									JOINT LeftHandThumb2
									{
										OFFSET 4.012842 -1.828126 1.641656
										CHANNELS 3 Zrotation Yrotation Xrotation
										JOINT LeftHandThumb3
										{
											OFFSET 2.798516 0.000000 -0.000003
											CHANNELS 3 Zrotation Yrotation Xrotation
											JOINT LeftHandThumbEnd
											{
												OFFSET 3.180791 -0.000002 0.000003
												CHANNELS 3 Zrotation Yrotation Xrotation
												End Site
												{
													OFFSET 0.000000 0.000000 0.000000
												}
											}
										}
									}
								}
								JOINT LeftHandIndex1
								{
									OFFSET 3.247554 -0.531998 2.296169
									CHANNELS 3 Zrotation Yrotation Xrotation
									JOINT LeftHandIndex2
									{
										OFFSET 6.364579 0.012062 0.178600
										CHANNELS 3 Zrotation Yrotation Xrotation
										JOINT LeftHandIndex3
										{
											OFFSET 3.662366 0.000001 0.000000
											CHANNELS 3 Zrotation Yrotation Xrotation
											JOINT LeftHandIndex4
											{
												OFFSET 2.329243 0.000003 0.000004
												CHANNELS 3 Zrotation Yrotation Xrotation
												JOINT LeftHandIndexEnd
												{
													OFFSET 2.759619 -0.180539 -0.113024
													CHANNELS 3 Zrotation Yrotation Xrotation
													End Site
													{
														OFFSET 0.000000 0.000000 0.000000
													}
												}
											}
										}
									}
								}
								JOINT LeftHandMiddle1
								{
									OFFSET 3.163499 0.240981 1.000332
									CHANNELS 3 Zrotation Yrotation Xrotation
									JOINT LeftHandMiddle2
									{
										OFFSET 6.190778 -0.259276 -1.002549
										CHANNELS 3 Zrotation Yrotation Xrotation
										JOINT LeftHandMiddle3
										{
											OFFSET 4.356523 -0.000006 0.000000
											CHANNELS 3 Zrotation Yrotation Xrotation
											JOINT LeftHandMiddle4
											{
												OFFSET 2.996875 -0.000007 0.000001
												CHANNELS 3 Zrotation Yrotation Xrotation
												JOINT LeftHandMiddleEnd
												{
													OFFSET 2.304294 -0.294572 -0.031740
													CHANNELS 3 Zrotation Yrotation Xrotation
													End Site
													{
														OFFSET 0.000000 0.000000 0.000000
													}
												}
											}
										}
									}
								}
								JOINT LeftHandRing1
								{
									OFFSET 2.882642 -0.053650 -0.322543
									CHANNELS 3 Zrotation Yrotation Xrotation
									JOINT LeftHandRing2
									{
										OFFSET 5.854543 -0.486203 -1.373841
										CHANNELS 3 Zrotation Yrotation Xrotation
										JOINT LeftHandRing3
										{
											OFFSET 4.350580 0.000000 0.000004
											CHANNELS 3 Zrotation Yrotation Xrotation
											JOINT LeftHandRing4
											{
												OFFSET 2.651324 0.000008 0.000002
												CHANNELS 3 Zrotation Yrotation Xrotation
												JOINT LeftHandRingEnd
												{
													OFFSET 1.936110 0.077684 -0.000069
													CHANNELS 3 Zrotation Yrotation Xrotation
													End Site
													{
														OFFSET 0.000000 0.000000 0.000000
													}
												}
											}
										}
									}
								}
								JOINT LeftHandPinky1
								{
									OFFSET 2.865499 -0.310004 -1.600378
									CHANNELS 3 Zrotation Yrotation Xrotation
									JOINT LeftHandPinky2
									{
										OFFSET 5.087853 -1.331142 -1.771231
										CHANNELS 3 Zrotation Yrotation Xrotation
										JOINT LeftHandPinky3
										{
											OFFSET 3.070975 0.000003 0.000001
											CHANNELS 3 Zrotation Yrotation Xrotation
											JOINT LeftHandPinky4
											{
												OFFSET 1.549668 0.000001 0.000001
												CHANNELS 3 Zrotation Yrotation Xrotation
												JOINT LeftHandPinkyEnd
												{
													OFFSET 1.944894 -0.157802 0.057219
													CHANNELS 3 Zrotation Yrotation Xrotation
													End Site
													{
														OFFSET 0.000000 0.000000 0.000000
													}
												}
											}
										}
									}
								}
							}
						}
					}
				}
				JOINT RightShoulder
				{
					OFFSET -1.380118 23.180309 5.214158
					CHANNELS 3 Zrotation Yrotation Xrotation
					JOINT RightArm
					{
						OFFSET -15.037197 0.000012 -5.545604
						CHANNELS 3 Zrotation Yrotation Xrotation
						JOINT RightForeArm
						{
							OFFSET -28.736639 0.000003 -0.002597
							CHANNELS 3 Zrotation Yrotation Xrotation
							JOINT RightHand
							{
								OFFSET -27.133617 0.000000 0.002613
								CHANNELS 3 Zrotation Yrotation Xrotation
								JOINT RightHandThumb1
								{
									OFFSET -2.274037 -1.383990 3.163127
									CHANNELS 3 Zrotation Yrotation Xrotation
									JOINT RightHandThumb2
									{
										OFFSET -4.011428 -1.827468 1.640914
										CHANNELS 3 Zrotation Yrotation Xrotation
										JOINT RightHandThumb3
										{
											OFFSET -2.794935 -0.000003 -0.000003
											CHANNELS 3 Zrotation Yrotation Xrotation
											JOINT RightHandThumbEnd
											{
												OFFSET -3.183855 0.000003 -0.000001
												CHANNELS 3 Zrotation Yrotation Xrotation
												End Site
												{
													OFFSET 0.000000 0.000000 0.000000
												}
											}
										}
									}
								}
								JOINT RightHandIndex1
								{
									OFFSET -3.253270 -0.520060 2.282866
									CHANNELS 3 Zrotation Yrotation Xrotation
									JOINT RightHandIndex2
									{
										OFFSET -6.341918 0.012473 0.178265
										CHANNELS 3 Zrotation Yrotation Xrotation
										JOINT RightHandIndex3
										{
											OFFSET -3.654875 -0.000009 -0.000001
											CHANNELS 3 Zrotation Yrotation Xrotation
											JOINT RightHandIndex4
											{
												OFFSET -2.327586 -0.000000 -0.000000
												CHANNELS 3 Zrotation Yrotation Xrotation
												JOINT RightHandIndexEnd
												{
													OFFSET -2.761789 -0.180657 -0.113078
													CHANNELS 3 Zrotation Yrotation Xrotation
													End Site
													{
														OFFSET 0.000000 0.000000 0.000000
													}
												}
											}
										}
									}
								}
								JOINT RightHandMiddle1
								{
									OFFSET -3.168106 0.246593 1.001030
									CHANNELS 3 Zrotation Yrotation Xrotation
									JOINT RightHandMiddle2
									{
										OFFSET -6.180830 -0.258836 -1.000896
										CHANNELS 3 Zrotation Yrotation Xrotation
										JOINT RightHandMiddle3
										{
											OFFSET -4.348905 -0.000000 -0.000001
											CHANNELS 3 Zrotation Yrotation Xrotation
											JOINT RightHandMiddle4
											{
												OFFSET -3.000242 -0.000003 -0.000003
												CHANNELS 3 Zrotation Yrotation Xrotation
												JOINT RightHandMiddleEnd
												{
													OFFSET -2.302518 -0.294371 -0.031706
													CHANNELS 3 Zrotation Yrotation Xrotation
													End Site
													{
														OFFSET 0.000000 0.000000 0.000000
													}
												}
											}
										}
									}
								}
								JOINT RightHandRing1
								{
									OFFSET -2.885694 -0.067952 -0.308858
									CHANNELS 3 Zrotation Yrotation Xrotation
									JOINT RightHandRing2
									{
										OFFSET -5.854196 -0.486132 -1.373732
										CHANNELS 3 Zrotation Yrotation Xrotation
										JOINT RightHandRing3
										{
											OFFSET -4.338814 -0.000003 -0.000000
											CHANNELS 3 Zrotation Yrotation Xrotation
											JOINT RightHandRing4
											{
												OFFSET -2.654905 -0.000004 0.000004
												CHANNELS 3 Zrotation Yrotation Xrotation
												JOINT RightHandRingEnd
												{
													OFFSET -1.933569 0.077523 -0.000052
													CHANNELS 3 Zrotation Yrotation Xrotation
													End Site
													{
														OFFSET 0.000000 0.000000 0.000000
													}
												}
											}
										}
									}
								}
								JOINT RightHandPinky1
								{
									OFFSET -2.866429 -0.342798 -1.584145
									CHANNELS 3 Zrotation Yrotation Xrotation
									JOINT RightHandPinky2
									{
										OFFSET -5.091370 -1.332054 -1.772385
										CHANNELS 3 Zrotation Yrotation Xrotation
										JOINT RightHandPinky3
										{
											OFFSET -3.062666 -0.000006 -0.000000
											CHANNELS 3 Zrotation Yrotation Xrotation
											JOINT RightHandPinky4
											{
												OFFSET -1.546526 0.000005 -0.000003
												CHANNELS 3 Zrotation Yrotation Xrotation
												JOINT RightHandPinkyEnd
												{
													OFFSET -1.945122 -0.157721 0.057211
													CHANNELS 3 Zrotation Yrotation Xrotation
													End Site
													{
														OFFSET 0.000000 0.000000 0.000000
													}
												}
											}
										}
									}
								}
							}
						}
					}
				}
			}
		}
	}
	JOINT LeftLeg
	{
		OFFSET 10.043214 -8.434526 2.595655
		CHANNELS 3 Zrotation Yrotation Xrotation
		JOINT LeftShin
		{
			OFFSET -0.000001 -43.221752 -0.802913
			CHANNELS 3 Zrotation Yrotation Xrotation
			JOINT LeftFoot
			{
				OFFSET 0.000001 -42.155094 -3.481523
				CHANNELS 3 Zrotation Yrotation Xrotation
				JOINT LeftToeBase
				{
					OFFSET -0.000000 -5.059475 13.231529
					CHANNELS 3 Zrotation Yrotation Xrotation
					JOINT LeftToeEnd
					{
						OFFSET -0.009607 -1.647616 6.513017
						CHANNELS 3 Zrotation Yrotation Xrotation
						End Site
						{
							OFFSET 0.000000 0.000000 0.000000
						}
					}
				}
			}
		}
	}
	JOINT RightLeg
	{
		OFFSET -10.047277 -8.295259 2.620317
		CHANNELS 3 Zrotation Yrotation Xrotation
		JOINT RightShin
		{
			OFFSET 0.000001 -43.362209 -0.805556
			CHANNELS 3 Zrotation Yrotation Xrotation
			JOINT RightFoot
			{
				OFFSET 0.000002 -42.117393 -3.478398
				CHANNELS 3 Zrotation Yrotation Xrotation
				JOINT RightToeBase
				{
					OFFSET -0.000001 -5.079609 13.284196
					CHANNELS 3 Zrotation Yrotation Xrotation
					JOINT RightToeEnd
					{
						OFFSET 0.009532 -1.634383 6.460591
						CHANNELS 3 Zrotation Yrotation Xrotation
						End Site
						{
							OFFSET 0.000000 0.000000 0.000000
						}
					}
				}
			}
		}
	}
}
MOTION
Frames: 5
Frame Time: 0.033333
0.813833 61.788143 51.814205 1.968323 22.353941 2.384905 -0.907678 -0.553852 -2.789617 -0.311434 0.255306 -5.994104 2.203690 -1.077188 9.086069 6.862810 -0.328738 6.439533 -1.193535 -3.178188 -3.229086 2.566249 -6.509633 11.744219 0.000077 -0.000022 0.000005 0.015772 -0.077049 -0.196745 0.955022 -3.836966 -10.685418 -0.932770 3.680321 -10.846828 -0.263633 -9.281122 12.883225 -67.288315 -34.321091 46.152027 0.334955 -39.168526 -0.076622 3.074611 -0.897061 6.030426 -5.882102 9.861281 0.702589 -10.936858 -0.360574 7.156198 -0.000000 8.774814 -0.000001 -15.840029 17.964342 6.199017 -1.844032 2.498503 -2.507275 -10.163590 4.678940 4.621105 -20.975996 -0.000003 0.000003 -21.226248 2.451692 -3.593995 -0.000001 -0.000006 0.000000 -1.362680 2.240799 -0.746322 -21.334887 0.584909 3.008322 -13.821197 -0.000003 0.000002 -23.887131 -0.249079 -0.839480 -59.558762 2.399071 -0.786530 -0.294026 1.679687 0.833256 -14.218192 0.093215 1.300578 -34.211998 -0.287564 0.967170 -20.033180 0.964536 1.212842 0.000001 -0.000000 0.000000 -3.440385 0.788234 0.501655 -15.928169 -3.167307 2.999704 -6.338818 -0.000001 0.000002 -18.123415 3.648177 -4.905662 -0.000004 -0.000000 -0.000003 3.117024 17.873037 10.904519 66.876480 0.189843 10.532482 0.349079 32.983227 0.357278 -29.533470 14.369980 10.681265 2.243541 -5.255032 -3.180156 14.282878 -0.826593 6.952495 -0.000001 -12.690591 0.000002 15.648928 -18.567869 2.676345 1.665667 -1.955920 -2.878297 4.727794 -4.170585 4.993918 11.020510 0.000002 -0.000001 12.109034 -3.735710 -2.866779 0.000001 0.000000 0.000000 1.291985 -1.928547 -1.498088 14.800111 0.567467 3.865602 14.242551 -1.341735 -6.660648 19.631939 0.143927 -0.648244 49.490017 -1.063530 -6.642302 0.353028 -1.511149 -0.031941 20.222767 3.684305 2.316628 18.787247 0.000005 -0.000000 10.751610 -0.479869 1.397904 -0.000000 -0.000001 0.000000 3.273803 0.305947 -0.580111 21.486790 11.830361 2.266128 8.162919 0.000001 0.000000 18.399052 -3.798979 -4.940567 0.000003 0.000000 0.000000 14.088275 -8.823753 -8.495097 -0.687344 -1.728530 92.030479 -14.927818 -0.332950 -39.640327 1.975897 -1.758952 -32.235962 0.000000 -0.000000 0.000002 -9.344763 -19.955122 -0.691696 0.286974 2.193780 97.879463 6.812399 5.441442 -25.269182 -1.367504 0.607343 -32.622448 0.000000 0.000000 -0.000003 
0.665450 58.665508 54.598351 2.123784 22.090797 5.121132 -0.403666 -0.772675 -2.510152 -0.087166 0.303633 -5.716995 2.685292 -0.890858 9.167566 6.448424 0.366806 3.256367 -1.122775 -3.286063 -3.351003 1.744674 -6.444860 10.248903 0.000077 -0.000022 0.000003 0.001952 -0.018427 -0.205706 0.934824 -3.765235 -10.640991 -0.938762 3.719225 -10.778779 0.336687 -9.324759 12.422866 -66.188538 -38.305466 43.240955 0.739706 -44.221195 -0.311242 4.739445 0.267605 8.016479 -5.882098 9.861278 0.702589 -10.936860 -0.360575 7.156199 -0.000000 8.774814 -0.000001 -15.695809 18.123703 6.216870 -1.844032 2.498503 -2.507277 -10.163589 4.678940 4.621104 -20.975992 -0.000004 0.000006 -21.226248 2.451694 -3.593993 -0.000000 -0.000006 0.000001 -1.362680 2.240796 -0.746323 -21.334887 0.584907 3.008323 -13.821197 -0.000002 0.000004 -23.887131 -0.249077 -0.839478 -59.457375 2.464219 -1.058418 -0.294024 1.679687 0.833255 -14.218190 0.093214 1.300580 -34.211998 -0.287564 0.967174 -20.033180 0.964536 1.212843 -0.000001 -0.000000 -0.000000 -3.440385 0.788232 0.501656 -15.928167 -3.167309 2.999705 -6.338817 -0.000000 0.000002 -18.123411 3.648176 -4.905661 -0.000004 -0.000000 -0.000002 2.092058 19.437302 10.399021 65.785362 2.201513 8.039721 0.222275 34.353813 0.265507 -30.977993 14.916207 9.596793 2.243539 -5.255032 -3.180156 14.282877 -0.826592 6.952497 -0.000003 -12.690592 -0.000000 15.525474 -18.639393 2.823738 1.665665 -1.955920 -2.878297 4.727793 -4.170582 4.993920 11.020511 0.000003 -0.000000 12.109030 -3.735710 -2.866780 0.000002 0.000000 0.000001 1.291983 -1.928547 -1.498087 14.800111 0.567468 3.865605 14.242551 -1.341734 -6.660649 19.631935 0.143926 -0.648241 49.318748 -0.920891 -6.487550 0.353030 -1.511149 -0.031941 20.222765 3.684308 2.316629 18.787241 0.000005 0.000002 10.751609 -0.479867 1.397905 -0.000000 0.000000 -0.000000 3.273802 0.305947 -0.580109 21.486788 11.830362 2.266135 8.162914 0.000002 0.000002 18.399050 -3.798980 -4.940564 0.000003 -0.000001 -0.000000 12.972908 -7.164735 -17.848986 -0.810552 -1.884534 104.314827 -12.736335 0.129851 -40.575195 2.054393 -1.721556 -35.218357 0.000000 0.000001 0.000003 -9.094007 -20.659300 0.806183 0.348694 2.390561 98.457031 5.825670 6.485910 -28.790735 -1.335006 0.584369 -33.356281 0.000000 0.000000 -0.000004 
0.706752 55.715706 57.295204 2.214032 20.954271 8.387437 0.506467 -0.958806 -2.082196 0.170113 0.509301 -5.442062 3.388199 -0.478293 9.441175 5.219615 1.496336 -0.727288 -1.143886 -3.414769 -3.433029 0.866673 -6.186053 8.400358 0.000077 -0.000022 0.000006 0.015313 -0.016304 -0.216934 0.943910 -3.773046 -10.682571 -0.917702 3.722201 -10.837760 0.478212 -9.074290 11.652575 -64.399269 -41.971161 39.374851 1.271737 -49.663742 -0.738355 6.916937 1.872183 10.385880 -5.882102 9.861278 0.702592 -10.936859 -0.360575 7.156199 0.000001 8.774813 -0.000000 -15.662701 18.161943 6.256108 -1.844029 2.498502 -2.507277 -10.163590 4.678941 4.621104 -20.975994 -0.000002 0.000004 -21.226250 2.451694 -3.593992 0.000000 -0.000005 0.000001 -1.362681 2.240797 -0.746322 -21.334890 0.584909 3.008322 -13.821195 -0.000000 0.000004 -23.887131 -0.249076 -0.839481 -59.338795 2.568405 -1.142078 -0.294026 1.679687 0.833254 -14.218194 0.093215 1.300580 -34.212006 -0.287561 0.967171 -20.033176 0.964538 1.212842 0.000000 0.000000 0.000001 -3.440384 0.788233 0.501656 -15.928169 -3.167304 2.999707 -6.338817 0.000000 0.000002 -18.123415 3.648176 -4.905661 -0.000003 -0.000000 -0.000002 0.604888 21.371431 9.768540 63.624451 4.932122 4.946415 0.474351 35.406876 0.129505 -32.189720 15.508405 8.979436 2.243541 -5.255032 -3.180156 14.282875 -0.826594 6.952495 -0.000005 -12.690590 0.000003 15.427262 -18.747778 2.903412 1.665665 -1.955920 -2.878297 4.727792 -4.170583 4.993919 11.020513 0.000002 -0.000001 12.109034 -3.735710 -2.866781 0.000001 -0.000001 0.000001 1.291984 -1.928548 -1.498087 14.800113 0.567467 3.865602 14.242553 -1.341734 -6.660650 19.631939 0.143925 -0.648244 49.174797 -1.009248 -6.487149 0.353028 -1.511148 -0.031939 20.222769 3.684306 2.316628 18.787245 0.000005 -0.000001 10.751611 -0.479868 1.397904 0.000000 0.000001 0.000000 3.273802 0.305947 -0.580109 21.486792 11.830365 2.266129 8.162916 0.000002 -0.000000 18.399052 -3.798981 -4.940567 0.000003 0.000000 -0.000001 14.109138 -6.234550 -16.810564 -0.924376 -2.270705 105.184380 -12.136597 -1.610462 -39.974545 2.145237 -1.695490 -39.150768 0.000001 -0.000001 0.000003 -9.265533 -21.043406 0.882529 0.529191 2.861322 99.343399 4.991005 7.874685 -31.110741 -1.292170 0.596615 -33.019829 -0.000000 0.000000 -0.000004 
0.964399 52.846588 59.717224 2.130688 18.668634 12.087718 1.711341 -0.946647 -1.258200 0.521310 0.637112 -5.103586 4.269546 0.257670 10.080863 3.045362 2.783464 -5.732399 -1.130883 -3.071219 -3.467550 0.038435 -5.883619 5.815670 0.000077 -0.000022 0.000005 0.042176 -0.077548 -0.237154 0.932139 -3.865796 -10.798524 -0.857633 3.700393 -10.945782 0.441917 -8.554008 10.638196 -61.619682 -45.042385 33.753082 2.035869 -55.810913 -1.346187 8.896395 3.952667 13.206767 -5.882101 9.861278 0.702589 -10.936858 -0.360575 7.156197 0.000001 8.774813 -0.000001 -15.904513 18.134220 6.148085 -1.844031 2.498502 -2.507276 -10.163590 4.678941 4.621104 -20.975994 -0.000004 0.000003 -21.226250 2.451692 -3.593995 0.000000 -0.000006 -0.000000 -1.362680 2.240796 -0.746322 -21.334890 0.584909 3.008320 -13.821197 -0.000002 0.000002 -23.887131 -0.249079 -0.839481 -59.125023 2.776106 -1.437056 -0.294025 1.679686 0.833255 -14.218194 0.093214 1.300579 -34.212006 -0.287565 0.967167 -20.033180 0.964535 1.212840 0.000000 0.000001 0.000000 -3.440385 0.788233 0.501656 -15.928169 -3.167307 2.999703 -6.338818 -0.000000 0.000000 -18.123415 3.648176 -4.905662 -0.000005 -0.000002 -0.000001 -1.624069 23.892677 8.888225 60.413757 8.067442 0.780611 1.057608 36.948116 0.287279 -33.263683 15.858809 8.329195 2.243540 -5.255033 -3.180154 14.282875 -0.826595 6.952496 -0.000001 -12.690592 0.000001 15.701472 -18.719625 2.813645 1.665664 -1.955920 -2.878298 4.727795 -4.170582 4.993918 11.020512 0.000003 0.000000 12.109030 -3.735710 -2.866779 -0.000000 -0.000001 0.000001 1.291984 -1.928547 -1.498088 14.800111 0.567467 3.865602 14.242553 -1.341736 -6.660648 19.631939 0.143927 -0.648242 49.194855 -1.048756 -6.483707 0.353028 -1.511149 -0.031941 20.222769 3.684304 2.316628 18.787247 0.000003 -0.000001 10.751611 -0.479868 1.397903 -0.000000 -0.000001 0.000000 3.273803 0.305947 -0.580110 21.486788 11.830363 2.266130 8.162916 0.000001 0.000001 18.399052 -3.798981 -4.940567 0.000003 -0.000000 -0.000001 14.945527 -4.783453 -17.517059 -0.926046 -2.634135 107.166199 -11.696139 -3.589381 -39.312435 2.213160 -1.640607 -42.653812 0.000000 -0.000000 0.000003 -9.699858 -20.807032 -0.830563 0.660746 3.281909 101.215881 4.149600 8.584208 -32.071766 -1.262624 0.675141 -30.613008 0.000000 -0.000000 -0.000003 
1.194622 49.779274 61.827057 1.948606 15.661088 16.514980 2.953784 -0.694968 -0.081706 0.978226 0.855734 -4.636673 4.776830 1.038088 10.935227 0.352935 3.976006 -11.236307 -0.767296 -2.655230 -3.556207 -0.761595 -5.254889 2.446154 0.000077 -0.000023 0.000006 0.038855 -0.050769 -0.238989 0.895797 -3.833139 -10.794307 -0.818101 3.724243 -10.918438 0.594393 -7.829904 9.429274 -57.872543 -47.726753 26.709566 2.556737 -62.204388 -1.863437 11.212746 5.774961 15.469212 -5.882102 9.861278 0.702589 -10.936859 -0.360574 7.156198 -0.000003 8.774814 -0.000001 -15.871106 18.429585 6.157643 -1.844030 2.498503 -2.507276 -10.163590 4.678941 4.621102 -20.975996 -0.000005 0.000000 -21.226254 2.451692 -3.593995 -0.000000 -0.000004 0.000001 -1.362680 2.240797 -0.746323 -21.334887 0.584907 3.008319 -13.821197 -0.000003 0.000001 -23.887131 -0.249080 -0.839483 -59.261253 2.878213 -1.900614 -0.294024 1.679687 0.833256 -14.218190 0.093213 1.300578 -34.212006 -0.287564 0.967166 -20.033178 0.964535 1.212840 -0.000000 0.000002 -0.000000 -3.440384 0.788232 0.501655 -15.928164 -3.167306 2.999702 -6.338817 -0.000000 0.000001 -18.123411 3.648176 -4.905663 -0.000005 0.000000 -0.000001 -4.574441 26.511864 7.736438 56.409779 11.616250 -3.129472 0.960986 39.204971 0.114696 -35.632809 16.084175 6.372069 2.243540 -5.255033 -3.180155 14.282875 -0.826591 6.952496 -0.000002 -12.690590 0.000002 15.883505 -18.828840 2.799993 1.665665 -1.955921 -2.878297 4.727797 -4.170584 4.993919 11.020510 0.000004 -0.000002 12.109028 -3.735707 -2.866780 -0.000001 0.000000 0.000000 1.291985 -1.928547 -1.498089 14.800111 0.567468 3.865601 14.242553 -1.341732 -6.660650 19.631939 0.143928 -0.648245 49.430256 -0.659041 -6.244572 0.353028 -1.511149 -0.031940 20.222769 3.684308 2.316625 18.787245 0.000007 -0.000001 10.751610 -0.479868 1.397903 -0.000001 0.000001 -0.000000 3.273805 0.305946 -0.580111 21.486790 11.830363 2.266128 8.162916 0.000002 0.000000 18.399050 -3.798978 -4.940567 0.000003 -0.000002 -0.000001 15.659266 -2.640710 -19.563808 -1.020342 -2.967677 109.828133 -10.013339 -6.715947 -38.594437 2.336515 -1.571037 -45.714527 -0.000000 -0.000000 0.000003 -10.060490 -20.075552 -4.213761 0.794140 3.516897 104.056534 3.519799 7.938633 -31.851274 -1.267272 0.692850 -29.583662 0.000000 -0.000000 -0.000001 
